# Blender 5.1.0
# www.blender.org
mtllib cuchara.mtl
o cuchara
v -0.232056 1.208225 0.000571
v -0.237871 1.223670 -0.013891
v -0.210984 1.208225 0.000571
v -0.204875 1.223670 -0.013891
v -0.167620 1.058869 -0.013891
v -0.148350 1.102157 -0.013891
v -0.148350 1.145445 -0.013891
v -0.167620 1.188733 -0.013891
v -0.180461 1.179601 0.000571
v -0.163795 1.142162 0.000571
v -0.163795 1.105439 0.000571
v -0.180807 1.067224 0.000571
v -0.264811 1.067675 0.000571
v -0.283447 1.105735 0.000571
v -0.283447 1.141866 0.000571
v -0.265185 1.179162 0.000571
v -0.277695 1.188732 -0.013891
v -0.298892 1.145445 -0.013891
v -0.298892 1.102157 -0.013891
v -0.277695 1.058869 -0.013891
v -0.222433 0.509934 0.013891
v -0.244597 0.519317 0.013891
v -0.222433 0.509934 -0.013891
v -0.244597 0.519317 -0.013891
v -0.218463 0.509934 0.013891
v -0.196358 0.519314 0.013891
v -0.218463 0.509934 -0.013891
v -0.196358 0.519314 -0.013891
v -0.237871 0.807467 0.005907
v -0.229881 0.807467 0.013891
v -0.235531 0.807467 0.011553
v -0.229881 0.807467 -0.013891
v -0.237871 0.807467 -0.005907
v -0.235531 0.807467 -0.011552
v -0.212867 0.807467 0.013891
v -0.204875 0.807467 0.005907
v -0.207216 0.807467 0.011553
v -0.204875 0.807467 -0.005907
v -0.212867 0.807467 -0.013891
v -0.207216 0.807467 -0.011552
v -0.237871 1.015581 0.005907
v -0.226643 1.031026 0.000571
v -0.234104 1.034299 0.000571
v -0.235531 1.015581 0.011553
v -0.229881 1.015581 -0.013891
v -0.237871 1.015581 -0.005907
v -0.243276 1.021457 -0.013891
v -0.235531 1.015581 -0.011552
v -0.216238 1.031026 0.000571
v -0.204875 1.015581 0.005907
v -0.209172 1.034266 0.000571
v -0.207216 1.015581 0.011553
v -0.204875 1.015581 -0.005907
v -0.212867 1.015581 -0.013891
v -0.199667 1.021632 -0.013891
v -0.207216 1.015581 -0.011552
v -0.245815 0.522711 0.013891
v -0.252728 0.541971 0.005907
v -0.250703 0.536330 0.011553
v -0.252728 0.541971 -0.005907
v -0.245815 0.522711 -0.013891
v -0.250703 0.536330 -0.011552
v -0.188367 0.541959 0.005907
v -0.195162 0.522702 0.013891
v -0.190357 0.536319 0.011553
v -0.195162 0.522702 -0.013891
v -0.188367 0.541959 -0.005907
v -0.190357 0.536319 -0.011552
v -0.204875 1.223670 0.013891
v -0.237871 1.223670 0.013891
v -0.277695 1.188733 0.013891
v -0.167620 1.188732 0.013891
v -0.148350 1.145445 0.013891
v -0.148350 1.102157 0.013891
v -0.167620 1.058869 0.013891
v -0.277695 1.058869 0.013891
v -0.298892 1.102157 0.013891
v -0.298892 1.145445 0.013891
v -0.229881 1.015581 0.013891
v -0.243276 1.021457 0.013891
v -0.199667 1.021632 0.013891
v -0.212867 1.015581 0.013891
vn 0.1399 -0.3717 0.9177
vn -0.2720 0.7224 -0.6357
vn -0.1465 -0.3704 0.9173
vn 0.2848 0.7199 -0.6329
vn 0.6226 -0.3945 -0.6758
vn 0.7321 -0.1556 -0.6632
vn 0.7321 0.1556 -0.6632
vn 0.6085 0.4327 -0.6651
vn -0.3105 -0.2208 0.9246
vn -0.3740 -0.0795 0.9240
vn -0.3740 0.0795 0.9240
vn -0.3155 0.1999 0.9276
vn 0.3082 0.2106 0.9277
vn 0.3746 0.0868 0.9231
vn 0.3746 -0.0868 0.9231
vn 0.3024 -0.2314 0.9247
vn -0.5929 0.4535 -0.6655
vn -0.7322 0.1696 -0.6597
vn -0.7322 -0.1696 -0.6597
vn -0.6083 -0.4157 -0.6762
vn -0.1486 -0.7320 0.6650
vn -0.5661 -0.5353 0.6270
vn -0.1486 -0.7320 -0.6650
vn -0.5661 -0.5353 -0.6270
vn 0.1489 -0.7320 0.6649
vn 0.5679 -0.5337 0.6266
vn 0.1489 -0.7320 -0.6649
vn 0.5679 -0.5337 -0.6266
vn -0.9803 0.0275 0.1958
vn -0.1916 0.0053 0.9815
vn -0.7033 0.0197 0.7106
vn -0.1916 0.0053 -0.9815
vn -0.9803 0.0275 -0.1958
vn -0.7033 0.0197 -0.7106
vn 0.1912 0.0058 0.9815
vn 0.9801 0.0306 0.1959
vn 0.7028 0.0218 0.7110
vn 0.9801 0.0306 -0.1959
vn 0.1912 0.0058 -0.9815
vn 0.7028 0.0218 -0.7110
vn -0.8986 -0.4151 0.1422
vn 0.0784 0.3738 0.9242
vn 0.2220 0.3108 0.9242
vn -0.5922 -0.4521 0.6670
vn -0.1230 -0.0596 -0.9906
vn -0.8986 -0.4151 -0.1422
vn -0.4873 -0.5178 -0.7032
vn -0.5922 -0.4521 -0.6670
vn -0.0817 0.3742 0.9237
vn 0.9055 -0.3996 0.1426
vn -0.2303 0.3061 0.9237
vn 0.5974 -0.4400 0.6705
vn 0.9055 -0.3996 -0.1426
vn 0.1240 -0.0593 -0.9905
vn 0.5028 -0.5028 -0.7031
vn 0.5974 -0.4400 -0.6705
vn -0.6698 -0.2250 0.7076
vn -0.9843 -0.0969 0.1475
vn -0.8209 -0.1482 0.5515
vn -0.9843 -0.0969 -0.1475
vn -0.6698 -0.2250 -0.7076
vn -0.8209 -0.1482 -0.5515
vn 0.9849 -0.0911 0.1474
vn 0.6710 -0.2214 0.7076
vn 0.8218 -0.1434 0.5515
vn 0.6710 -0.2214 -0.7076
vn 0.9849 -0.0911 -0.1474
vn 0.8218 -0.1434 -0.5515
vn 0.2120 0.5359 0.8172
vn -0.2009 0.5337 0.8215
vn -0.4018 0.3073 0.8626
vn 0.4128 0.2936 0.8622
vn 0.4996 0.1062 0.8597
vn 0.4996 -0.1062 0.8597
vn 0.4084 -0.2588 0.8753
vn -0.3986 -0.2724 0.8758
vn -0.5050 -0.1170 0.8551
vn -0.5050 0.1170 0.8551
vn -0.0683 0.2437 0.9675
vn -0.3833 -0.2826 0.8793
vn 0.3951 -0.2706 0.8779
vn 0.0672 0.2414 0.9681
vt 0.555214 0.956603
vt 0.555438 0.956603
vt 0.555438 0.956709
vt 0.555214 0.956709
vt 0.555438 0.956781
vt 0.555438 0.956531
vt 0.555438 0.957209
vt 0.555438 0.957103
vt 0.555438 0.957471
vt 0.555438 0.957342
vt 0.555188 0.956899
vt 0.555107 0.956877
vt 0.555123 0.956862
vt 0.555438 0.956842
vt 0.555438 0.956971
vt 0.555194 0.957021
vt 0.555190 0.957019
vt 0.555187 0.956914
vt 0.555438 0.957281
vt 0.555438 0.957031
vt 0.555214 0.957103
vt 0.555214 0.957209
vt 0.555188 0.957399
vt 0.555190 0.957293
vt 0.555194 0.957291
vt 0.555438 0.957342
vt 0.555123 0.957167
vt 0.555107 0.957103
vt 0.555187 0.957413
vt 0.555687 0.957031
vt 0.555687 0.957281
vt 0.555438 0.957031
vt 0.555438 0.957309
vt 0.555438 0.957351
vt 0.555438 0.957461
vt 0.555437 0.957504
vt 0.555438 0.957510
vt 0.555438 0.957510
vt 0.555437 0.957503
vt 0.555438 0.957466
vt 0.555438 0.957433
vt 0.555438 0.957378
vt 0.555438 0.957347
vt 0.555438 0.957311
vt 0.555438 0.957304
vt 0.555437 0.957303
vt 0.555123 0.957017
vt 0.555206 0.956914
vt 0.555206 0.956787
vt 0.555437 0.956781
vt 0.555055 0.957031
vt 0.555055 0.957281
vt 0.555212 0.957038
vt 0.555212 0.957275
vt 0.555194 0.957291
vt 0.555070 0.957281
vt 0.555070 0.957031
vt 0.555438 0.956552
vt 0.555438 0.957531
vt 0.555438 0.956799
vt 0.555437 0.957299
vt 0.555438 0.957052
vt 0.555438 0.957531
s 1
usemtl Material
f 58/1/58 29/2/29 33/3/33 60/4/60
f 47/5/47 46/3/46 41/2/41 80/6/80 76/6/76 20/5/20
f 36/7/36 38/8/38 53/8/53 50/7/50
f 30/9/30 35/10/35 82/10/82 79/9/79
f 23/11/23 24/12/24 61/13/61 32/14/32 39/15/39 66/16/66 28/17/28 27/18/27
f 72/19/72 8/20/8 4/20/4 69/19/69
f 67/21/67 38/8/38 36/7/36 63/22/63
f 25/23/25 26/24/26 64/25/64 35/26/35 30/9/30 57/27/57 22/28/22 21/29/21
f 39/15/39 32/14/32 45/14/45 54/15/54
f 4/20/4 2/30/2 70/31/70 69/19/69
f 17/5/17 71/6/71 70/6/70 2/5/2
f 8/20/8 17/5/17 2/5/2 4/20/4
f 81/19/81 50/7/50 53/8/53 55/32/55 5/20/5 75/19/75
f 5/20/5 20/5/20 19/5/19 6/20/6
f 6/20/6 19/5/19 18/5/18 7/20/7
f 7/20/7 18/5/18 17/5/17 8/20/8
f 9/33/9 3/34/3 1/35/1 16/36/16 15/37/15 14/38/14 13/39/13 43/40/43 42/41/42 49/42/49 51/43/51 12/44/12 11/45/11 10/46/10
f 20/5/20 76/6/76 77/6/77 19/5/19
f 19/5/19 77/6/77 78/6/78 18/5/18
f 18/5/18 78/6/78 71/6/71 17/5/17
f 24/12/24 22/28/22 57/47/57 59/48/59 58/1/58 60/4/60 62/49/62 61/13/61
f 75/19/75 5/20/5 6/20/6 74/19/74
f 74/19/74 6/20/6 7/20/7 73/19/73
f 73/19/73 7/20/7 8/20/8 72/19/72
f 55/20/55 54/15/54 45/14/45 47/50/47 20/5/20 5/20/5
f 23/51/23 21/52/21 22/28/22 24/12/24
f 26/24/26 28/17/28 66/16/66 68/53/68 67/21/67 63/22/63 65/54/65 64/55/64
f 25/56/25 27/57/27 28/17/28 26/24/26
f 23/51/23 27/57/27 25/56/25 21/52/21
f 41/2/41 44/58/44 80/59/80
f 44/58/44 79/6/79 80/59/80
f 45/14/45 48/60/48 47/5/47
f 48/60/48 46/5/46 47/5/47
f 82/10/82 52/61/52 81/19/81
f 52/61/52 50/19/50 81/19/81
f 53/8/53 56/62/56 55/20/55
f 56/62/56 54/20/54 55/20/55
f 33/3/33 46/3/46 48/5/48 34/5/34
f 34/5/34 48/5/48 45/14/45 32/14/32
f 53/8/53 38/8/38 40/20/40 56/20/56
f 56/20/56 40/20/40 39/15/39 54/15/54
f 82/10/82 35/10/35 37/19/37 52/19/52
f 52/19/52 37/19/37 36/7/36 50/7/50
f 30/9/30 79/9/79 44/20/44 31/20/31
f 31/20/31 44/20/44 41/2/41 29/2/29
f 57/27/57 30/9/30 31/20/31 59/48/59
f 59/48/59 31/20/31 29/2/29 58/1/58
f 32/14/32 61/13/61 62/49/62 34/5/34
f 34/5/34 62/49/62 60/4/60 33/3/33
f 63/22/63 36/7/36 37/19/37 65/54/65
f 65/54/65 37/19/37 35/26/35 64/25/64
f 38/8/38 67/21/67 68/53/68 40/20/40
f 40/20/40 68/53/68 66/16/66 39/15/39
f 33/3/33 29/2/29 41/2/41 46/3/46
f 1/35/1 3/34/3 69/19/69 70/59/70
f 16/36/16 1/35/1 70/59/70 71/59/71
f 3/34/3 9/33/9 72/19/72 69/19/69
f 9/33/9 10/46/10 73/19/73 72/19/72
f 10/46/10 11/45/11 74/19/74 73/19/73
f 11/45/11 12/44/12 75/19/75 74/19/74
f 13/39/13 14/38/14 77/63/77 76/63/76
f 14/38/14 15/37/15 78/59/78 77/63/77
f 15/37/15 16/36/16 71/59/71 78/59/78
f 42/41/42 43/40/43 80/59/80 79/9/79
f 51/43/51 49/42/49 82/10/82 81/19/81
f 49/42/49 42/41/42 79/9/79 82/10/82
f 43/40/43 13/39/13 76/63/76 80/59/80
f 12/44/12 51/43/51 81/19/81 75/19/75
