# Blender 5.1.0
# www.blender.org
mtllib tenedor.mtl
o tenedor
v 0.173593 0.498715 -0.014000
v 0.206601 0.518771 -0.014000
v 0.193233 0.504089 -0.014000
v 0.173593 0.498715 0.014000
v 0.193233 0.504089 0.014000
v 0.206601 0.518771 0.014000
v 0.169497 0.498715 -0.014000
v 0.149954 0.504079 -0.014000
v 0.136847 0.518734 -0.014000
v 0.169497 0.498715 0.014000
v 0.136847 0.518734 0.014000
v 0.149954 0.504079 0.014000
v 0.184860 0.807951 -0.003675
v 0.174357 0.807951 -0.014000
v 0.181784 0.807951 -0.010976
v 0.174357 0.807951 0.014000
v 0.184860 0.807951 0.003675
v 0.181784 0.807951 0.010976
v 0.174355 0.807951 -0.014000
v 0.163817 0.807951 -0.003675
v 0.166903 0.807951 -0.010976
v 0.163817 0.807951 0.003675
v 0.174355 0.807951 0.014000
v 0.166903 0.807951 0.010976
v 0.174340 0.986372 -0.014000
v 0.184860 0.986372 -0.003675
v 0.181779 0.986372 -0.010976
v 0.184860 0.986372 0.003675
v 0.174340 0.986372 0.014000
v 0.181779 0.986372 0.010976
v 0.163817 0.986372 -0.003675
v 0.174375 0.986372 -0.014000
v 0.166909 0.986372 -0.010976
v 0.174375 0.986372 0.014000
v 0.163817 0.986372 0.003675
v 0.166909 0.986372 0.010976
v 0.217929 1.086349 -0.003675
v 0.214844 1.086349 -0.010976
v 0.217929 1.086349 0.003675
v 0.214844 1.086349 0.010976
v 0.127671 1.086349 -0.003675
v 0.130768 1.086349 -0.010976
v 0.127671 1.086349 0.003675
v 0.130768 1.086349 0.010976
v 0.206601 0.518771 -0.014000
v 0.210117 0.538827 -0.003675
v 0.209087 0.532952 -0.010976
v 0.210117 0.538827 0.003675
v 0.206601 0.518771 0.014000
v 0.209087 0.532952 0.010976
v 0.133690 0.538753 -0.003675
v 0.136847 0.518734 -0.014000
v 0.134615 0.532890 -0.010976
v 0.136847 0.518734 0.014000
v 0.133690 0.538753 0.003675
v 0.134615 0.532890 0.010976
v 0.217929 1.085510 -0.006293
v 0.210222 1.085510 -0.014000
v 0.215672 1.085510 -0.011743
v 0.210222 1.085510 0.014000
v 0.217929 1.085510 0.006293
v 0.215672 1.085510 0.011743
v 0.135378 1.085510 -0.014000
v 0.127671 1.085510 -0.006293
v 0.129929 1.085510 -0.011743
v 0.127671 1.085510 0.006293
v 0.135378 1.085510 0.014000
v 0.129929 1.085510 0.011743
v 0.136611 1.085510 0.014000
v 0.144317 1.085510 0.006293
v 0.142060 1.085510 0.011743
v 0.144317 1.085510 -0.006293
v 0.136611 1.085510 -0.014000
v 0.142060 1.085510 -0.011743
v 0.206497 1.085510 -0.014000
v 0.198790 1.085510 -0.006293
v 0.201047 1.085510 -0.011743
v 0.198790 1.085510 0.006293
v 0.206497 1.085510 0.014000
v 0.201047 1.085510 0.011743
v 0.152783 1.085510 0.006293
v 0.159418 1.085510 0.014000
v 0.155040 1.085510 0.011743
v 0.159418 1.085510 -0.014000
v 0.152783 1.085510 -0.006293
v 0.155040 1.085510 -0.011743
v 0.190027 1.085510 -0.006293
v 0.182535 1.085510 -0.014000
v 0.187769 1.085510 -0.011743
v 0.182535 1.085510 0.014000
v 0.190027 1.085510 0.006293
v 0.187769 1.085510 0.011743
v 0.166054 1.085510 0.006293
v 0.163796 1.085510 0.011743
v 0.166054 1.085510 -0.006293
v 0.163796 1.085510 -0.011743
v 0.175043 1.085510 -0.006293
v 0.177301 1.085510 -0.011743
v 0.175043 1.085510 0.006293
v 0.177301 1.085510 0.011743
v 0.142214 1.199837 0.004703
v 0.136455 1.199837 0.010462
v 0.140527 1.199837 0.008775
v 0.135534 1.199837 0.010462
v 0.129775 1.199837 0.004703
v 0.131462 1.199837 0.008775
v 0.209461 1.199837 -0.008275
v 0.214016 1.199837 -0.003720
v 0.212682 1.199837 -0.006941
v 0.214016 1.199837 0.003720
v 0.209461 1.199837 0.008275
v 0.212682 1.199837 0.006941
v 0.129775 1.199837 -0.004703
v 0.135534 1.199837 -0.010462
v 0.131462 1.199837 -0.008775
v 0.202703 1.199837 -0.003720
v 0.207259 1.199837 -0.008275
v 0.204038 1.199837 -0.006941
v 0.136455 1.199837 -0.010462
v 0.142214 1.199837 -0.004703
v 0.140527 1.199837 -0.008775
v 0.207259 1.199837 0.008275
v 0.202703 1.199837 0.003720
v 0.204038 1.199837 0.006941
v 0.164542 1.199837 0.004859
v 0.159418 1.199837 0.010810
v 0.162799 1.199837 0.009067
v 0.154294 1.199837 0.004859
v 0.156037 1.199837 0.009067
v 0.154294 1.199837 -0.004859
v 0.159418 1.199837 -0.010810
v 0.156037 1.199837 -0.009067
v 0.176979 1.199837 -0.004668
v 0.182535 1.199837 -0.010384
v 0.178653 1.199837 -0.008709
v 0.188092 1.199837 -0.004668
v 0.186417 1.199837 -0.008709
v 0.188092 1.199837 0.004668
v 0.182535 1.199837 0.010384
v 0.186417 1.199837 0.008709
v 0.164542 1.199837 -0.004859
v 0.162799 1.199837 -0.009067
v 0.176979 1.199837 0.004668
v 0.178653 1.199837 0.008709
v 0.204722 1.078262 -0.014000
v 0.214844 1.086349 -0.010976
v 0.208794 1.083980 -0.013114
v 0.214844 1.086349 0.010976
v 0.204722 1.078262 0.014000
v 0.208794 1.083980 0.013114
v 0.130768 1.086349 -0.010976
v 0.141168 1.078262 -0.014000
v 0.136911 1.083980 -0.013114
v 0.141168 1.078262 0.014000
v 0.130768 1.086349 0.010976
v 0.136911 1.083980 0.013114
v 0.207893 1.231508 -0.003509
v 0.206527 1.231508 -0.002943
v 0.205961 1.231508 -0.001577
v 0.206527 1.231508 0.002944
v 0.207893 1.231508 0.003509
v 0.205961 1.231508 0.001578
v 0.135738 1.231508 -0.005816
v 0.133474 1.231508 -0.004878
v 0.132537 1.231508 -0.002614
v 0.133474 1.231508 0.004878
v 0.135738 1.231508 0.005816
v 0.132537 1.231508 0.002614
v 0.179747 1.231508 0.002342
v 0.180587 1.231508 0.004370
v 0.184483 1.231508 0.004370
v 0.185323 1.231508 0.002342
v 0.182535 1.231508 0.005211
v 0.210758 1.231508 -0.001577
v 0.210192 1.231508 -0.002943
v 0.208826 1.231508 -0.003509
v 0.159418 1.231508 -0.005791
v 0.157607 1.231508 -0.004858
v 0.156673 1.231508 -0.002603
v 0.156673 1.231508 0.002603
v 0.157607 1.231508 0.004858
v 0.182535 1.231508 -0.005210
v 0.180587 1.231508 -0.004370
v 0.179747 1.231508 -0.002342
v 0.136250 1.231508 0.005816
v 0.138514 1.231508 0.004878
v 0.139452 1.231508 0.002614
v 0.138514 1.231508 -0.004878
v 0.136250 1.231508 -0.005816
v 0.139452 1.231508 -0.002614
v 0.185323 1.231508 -0.002342
v 0.184483 1.231508 -0.004370
v 0.161229 1.231508 0.004858
v 0.162163 1.231508 0.002603
v 0.159418 1.231508 0.005791
v 0.162163 1.231508 -0.002603
v 0.161229 1.231508 -0.004858
v 0.210192 1.231508 0.002944
v 0.210758 1.231508 0.001578
v 0.208826 1.231508 0.003509
vn 0.0978 -0.7282 -0.6783
vn 0.7963 -0.3906 -0.4618
vn 0.3972 -0.6484 -0.6494
vn 0.0978 -0.7282 0.6783
vn 0.3972 -0.6484 0.6494
vn 0.7963 -0.3906 0.4618
vn -0.0981 -0.7282 -0.6783
vn -0.4007 -0.6470 -0.6487
vn -0.8011 -0.3801 -0.4622
vn -0.0981 -0.7282 0.6783
vn -0.8011 -0.3801 0.4622
vn -0.4007 -0.6470 0.6487
vn 0.9831 0.0473 -0.1768
vn 0.4079 0.0231 -0.9127
vn 0.7295 0.0380 -0.6829
vn 0.4079 0.0231 0.9127
vn 0.9831 0.0473 0.1768
vn 0.7295 0.0380 0.6829
vn -0.4044 0.0267 -0.9142
vn -0.9825 0.0563 -0.1773
vn -0.7276 0.0448 -0.6846
vn -0.9825 0.0563 0.1773
vn -0.4044 0.0267 0.9142
vn -0.7276 0.0448 0.6846
vn 0.4192 -0.0618 -0.9058
vn 0.9668 -0.1590 -0.1998
vn 0.6765 -0.1100 -0.7282
vn 0.9668 -0.1590 0.1998
vn 0.4192 -0.0618 0.9058
vn 0.6765 -0.1100 0.7282
vn -0.9644 -0.1728 -0.2003
vn -0.4225 -0.0673 -0.9039
vn -0.6727 -0.1192 -0.7302
vn -0.4225 -0.0673 0.9039
vn -0.9644 -0.1728 0.2003
vn -0.6727 -0.1192 0.7302
vn 0.8238 0.5437 -0.1604
vn 0.6779 0.2880 -0.6764
vn 0.8238 0.5437 0.1604
vn 0.6779 0.2880 0.6764
vn -0.8307 0.5326 -0.1618
vn -0.6807 0.2698 -0.6811
vn -0.8307 0.5326 0.1618
vn -0.6807 0.2698 0.6811
vn 0.6698 -0.0994 -0.7359
vn 0.9938 -0.0120 -0.1102
vn 0.8580 -0.0378 -0.5123
vn 0.9938 -0.0120 0.1102
vn 0.6698 -0.0994 0.7359
vn 0.8580 -0.0378 0.5123
vn -0.9939 0.0054 -0.1101
vn -0.6713 -0.0878 -0.7360
vn -0.8585 -0.0228 -0.5123
vn -0.6713 -0.0878 0.7360
vn -0.9939 0.0054 0.1101
vn -0.8585 -0.0228 0.5123
vn -0.7437 0.6516 0.1494
vn -0.1485 0.6470 0.7479
vn -0.5577 0.6121 0.5607
vn -0.1485 0.6470 -0.7479
vn -0.7437 0.6516 -0.1494
vn -0.5577 0.6121 -0.5607
vn 0.1471 0.6544 0.7417
vn 0.7383 0.6580 0.1478
vn 0.5537 0.6198 0.5561
vn 0.7383 0.6580 -0.1478
vn 0.1471 0.6544 -0.7417
vn 0.5537 0.6198 -0.5561
vn -0.1471 0.6544 -0.7417
vn -0.7383 0.6580 -0.1478
vn -0.5537 0.6198 -0.5561
vn -0.7383 0.6580 0.1478
vn -0.1471 0.6544 0.7417
vn -0.5537 0.6198 0.5561
vn 0.1485 0.6470 0.7479
vn 0.7437 0.6516 0.1494
vn 0.5577 0.6121 0.5607
vn 0.7437 0.6516 -0.1494
vn 0.1485 0.6470 -0.7479
vn 0.5577 0.6121 -0.5607
vn 0.7366 0.6600 -0.1475
vn -0.0000 0.6065 -0.7951
vn 0.5709 0.6289 -0.5278
vn -0.0000 0.6065 0.7951
vn 0.7366 0.6600 0.1475
vn 0.5709 0.6289 0.5278
vn -0.7379 0.6585 0.1478
vn -0.0000 0.6160 0.7878
vn -0.5567 0.6213 0.5515
vn -0.0000 0.6160 -0.7878
vn -0.7379 0.6585 -0.1478
vn -0.5567 0.6213 -0.5515
vn -0.7366 0.6600 -0.1474
vn -0.5709 0.6289 -0.5278
vn -0.7366 0.6600 0.1474
vn -0.5709 0.6289 0.5278
vn 0.7379 0.6585 0.1478
vn 0.5567 0.6213 0.5515
vn 0.7379 0.6585 -0.1478
vn 0.5567 0.6213 -0.5515
vn -0.9786 -0.0592 -0.1969
vn -0.1934 -0.0867 -0.9773
vn -0.7024 -0.0786 -0.7075
vn 0.1934 -0.0867 -0.9773
vn 0.9786 -0.0592 -0.1969
vn 0.7024 -0.0786 -0.7075
vn -0.1938 -0.0996 0.9760
vn -0.9776 -0.0755 0.1963
vn -0.7023 -0.0949 0.7056
vn -0.9776 -0.0755 -0.1963
vn -0.1938 -0.0996 -0.9760
vn -0.7023 -0.0949 -0.7056
vn 0.9786 -0.0592 0.1969
vn 0.1934 -0.0867 0.9773
vn 0.7024 -0.0786 0.7075
vn 0.9776 -0.0754 0.1963
vn 0.1938 -0.0996 0.9760
vn 0.7023 -0.0949 0.7056
vn -0.1934 -0.0867 0.9773
vn -0.9786 -0.0592 0.1969
vn -0.7024 -0.0786 0.7075
vn 0.1938 -0.0996 -0.9760
vn 0.9776 -0.0754 -0.1963
vn 0.7023 -0.0949 -0.7056
vn -0.9790 -0.0513 -0.1975
vn -0.0000 -0.0907 -0.9959
vn -0.7304 -0.0735 -0.6791
vn 0.9790 -0.0513 -0.1975
vn 0.7304 -0.0735 -0.6791
vn 0.9790 -0.0513 0.1975
vn -0.0000 -0.0907 0.9959
vn 0.7304 -0.0735 0.6791
vn 0.9785 -0.0594 0.1973
vn -0.0000 -0.0951 0.9955
vn 0.7065 -0.0820 0.7030
vn -0.9785 -0.0594 0.1973
vn -0.7065 -0.0820 0.7030
vn -0.9785 -0.0594 -0.1973
vn -0.0000 -0.0951 -0.9955
vn -0.7065 -0.0820 -0.7030
vn -0.9790 -0.0513 0.1975
vn -0.7304 -0.0735 0.6791
vn 0.9785 -0.0594 -0.1973
vn 0.7065 -0.0820 -0.7030
vn 0.1728 -0.0022 -0.9850
vn 0.2302 0.6678 -0.7079
vn 0.1704 0.2888 -0.9421
vn 0.2302 0.6678 0.7079
vn 0.1728 -0.0022 0.9850
vn 0.1704 0.2888 0.9421
vn -0.2309 0.6644 -0.7109
vn -0.1725 -0.0069 -0.9850
vn -0.1710 0.2843 -0.9434
vn -0.1725 -0.0069 0.9850
vn -0.2309 0.6644 0.7109
vn -0.1710 0.2843 0.9434
vn 0.1363 -0.7198 0.6807
vn 0.5207 -0.6833 0.5118
vn 0.6946 -0.7068 0.1340
vn 0.5207 -0.6833 -0.5118
vn 0.1363 -0.7198 -0.6807
vn 0.6946 -0.7068 -0.1340
vn 0.1378 -0.7176 0.6827
vn 0.5248 -0.6787 0.5138
vn 0.7000 -0.7013 0.1349
vn 0.5248 -0.6787 -0.5138
vn 0.1378 -0.7176 -0.6827
vn 0.7000 -0.7013 -0.1349
vn 0.6996 -0.7018 -0.1341
vn 0.5275 -0.6825 -0.5060
vn -0.5275 -0.6825 -0.5059
vn -0.6996 -0.7018 -0.1342
vn -0.0000 -0.6877 -0.7260
vn -0.6946 -0.7068 0.1340
vn -0.5207 -0.6833 0.5118
vn -0.1363 -0.7198 0.6807
vn -0.0000 -0.6754 0.7375
vn 0.5444 -0.6834 0.4864
vn 0.7039 -0.6974 0.1349
vn 0.7039 -0.6974 -0.1349
vn 0.5444 -0.6834 -0.4864
vn -0.0000 -0.6877 0.7260
vn 0.5275 -0.6825 0.5059
vn 0.6996 -0.7018 0.1341
vn -0.1378 -0.7176 -0.6827
vn -0.5248 -0.6787 -0.5138
vn -0.7000 -0.7013 -0.1349
vn -0.5248 -0.6787 0.5138
vn -0.1378 -0.7176 0.6827
vn -0.7000 -0.7013 0.1349
vn -0.6996 -0.7018 0.1342
vn -0.5275 -0.6825 0.5059
vn -0.5444 -0.6834 -0.4864
vn -0.7039 -0.6974 -0.1349
vn -0.0000 -0.6754 -0.7375
vn -0.7039 -0.6974 0.1349
vn -0.5444 -0.6834 0.4864
vn -0.5207 -0.6833 -0.5118
vn -0.6946 -0.7068 -0.1340
vn -0.1363 -0.7198 -0.6807
vt 0.554688 0.937500
vt 0.554688 0.937500
vt 0.554688 0.937500
vt 0.554688 0.937500
vt 0.554688 0.937500
s 1
usemtl Material
f 20/1/20 22/1/22 35/1/35 31/1/31
f 28/1/28 26/1/26 37/1/37 39/1/39
f 23/1/23 16/1/16 29/1/29 34/1/34
f 7/1/7 1/1/1 4/1/4 10/1/10
f 14/1/14 19/1/19 32/1/32 25/1/25
f 33/1/33 42/1/42 151/1/151 153/1/153 152/2/152 32/1/32
f 55/1/55 22/1/22 20/1/20 51/1/51
f 7/1/7 8/1/8 9/1/9 52/1/52 19/1/19 14/1/14 45/1/45 2/1/2 3/1/3 1/1/1
f 4/1/4 5/1/5 6/1/6 49/1/49 16/1/16 23/1/23 54/1/54 11/1/11 12/1/12 10/1/10
f 6/1/6 2/1/2 45/1/45 47/1/47 46/1/46 48/1/48 50/1/50 49/1/49
f 37/1/37 38/1/38 146/1/146 151/1/151 42/1/42 41/1/41 43/1/43 44/1/44 155/1/155 148/1/148 40/1/40 39/1/39
f 148/1/148 150/1/150 149/2/149 29/1/29 30/1/30 40/1/40
f 31/1/31 35/1/35 43/1/43 41/1/41
f 60/1/60 79/1/79 122/1/122 111/1/111
f 63/3/63 73/1/73 119/3/119 114/1/114
f 75/1/75 58/1/58 107/1/107 117/1/117
f 72/1/72 70/1/70 101/1/101 120/1/120
f 57/1/57 59/1/59 58/1/58 75/1/75 77/1/77 76/1/76 78/1/78 80/1/80 79/1/79 60/1/60 62/1/62 61/1/61
f 78/1/78 76/1/76 116/1/116 123/1/123
f 81/1/81 83/1/83 82/1/82 94/1/94 93/1/93 95/1/95 96/1/96 84/1/84 86/1/86 85/1/85
f 81/1/81 85/1/85 130/1/130 128/1/128
f 99/1/99 97/1/97 133/1/133 143/1/143
f 95/1/95 93/1/93 125/1/125 141/1/141
f 87/1/87 91/1/91 138/1/138 136/1/136
f 63/3/63 65/1/65 64/1/64 66/1/66 68/1/68 67/1/67 69/3/69 71/1/71 70/1/70 72/1/72 74/1/74 73/1/73
f 101/1/101 103/1/103 186/1/186 187/1/187
f 127/1/127 126/1/126 195/1/195 193/1/193
f 132/1/132 131/4/131 177/4/177 178/1/178
f 124/1/124 123/1/123 162/1/162 160/1/160
f 69/3/69 67/1/67 104/3/104 102/1/102
f 66/1/66 64/1/64 113/1/113 105/1/105
f 87/1/87 89/3/89 88/1/88 98/1/98 97/1/97 99/1/99 100/1/100 90/1/90 92/1/92 91/1/91
f 7/1/7 10/1/10 12/1/12 8/1/8
f 8/1/8 12/1/12 11/1/11 9/1/9
f 4/1/4 1/1/1 3/1/3 5/1/5
f 5/1/5 3/1/3 2/1/2 6/1/6
f 9/1/9 11/1/11 54/1/54 56/1/56 55/4/55 51/1/51 53/1/53 52/1/52
f 46/1/46 13/1/13 17/1/17 48/1/48
f 17/1/17 28/1/28 30/1/30 18/1/18
f 18/1/18 30/1/30 29/1/29 16/1/16
f 35/1/35 22/1/22 24/1/24 36/1/36
f 36/1/36 24/1/24 23/1/23 34/1/34
f 32/1/32 19/1/19 21/1/21 33/1/33
f 33/1/33 21/1/21 20/1/20 31/1/31
f 14/1/14 25/1/25 27/1/27 15/1/15
f 15/1/15 27/1/27 26/1/26 13/1/13
f 31/1/31 41/1/41 42/1/42 33/1/33
f 34/1/34 154/1/154 156/1/156 155/1/155 44/1/44 36/1/36
f 37/1/37 26/1/26 27/1/27 38/1/38
f 25/1/25 32/1/32 152/1/152 145/1/145
f 34/1/34 29/1/29 149/2/149 154/1/154
f 40/1/40 30/1/30 28/1/28 39/1/39
f 36/1/36 44/1/44 43/1/43 35/1/35
f 51/1/51 20/1/20 21/1/21 53/1/53
f 53/1/53 21/1/21 19/1/19 52/1/52
f 13/1/13 46/1/46 47/1/47 15/1/15
f 15/1/15 47/1/47 45/1/45 14/1/14
f 16/1/16 49/1/49 50/1/50 18/1/18
f 18/1/18 50/1/50 48/1/48 17/1/17
f 22/1/22 55/1/55 56/1/56 24/1/24
f 24/1/24 56/1/56 54/1/54 23/1/23
f 17/1/17 13/1/13 26/1/26 28/1/28
f 75/1/75 117/1/117 118/1/118 77/1/77
f 77/1/77 118/1/118 116/1/116 76/1/76
f 122/1/122 79/1/79 80/1/80 124/1/124
f 124/1/124 80/1/80 78/1/78 123/1/123
f 63/3/63 114/1/114 115/1/115 65/1/65
f 65/1/65 115/1/115 113/1/113 64/1/64
f 104/3/104 67/1/67 68/1/68 106/1/106
f 106/1/106 68/1/68 66/1/66 105/1/105
f 99/1/99 143/1/143 144/4/144 100/1/100
f 100/1/100 144/4/144 139/1/139 90/4/90
f 138/1/138 91/1/91 92/1/92 140/4/140
f 140/4/140 92/1/92 90/1/90 139/4/139
f 57/1/57 108/1/108 109/1/109 59/1/59
f 59/1/59 109/1/109 107/1/107 58/1/58
f 84/1/84 131/4/131 132/1/132 86/1/86
f 86/1/86 132/1/132 130/1/130 85/1/85
f 126/1/126 82/1/82 83/1/83 129/1/129
f 129/1/129 83/1/83 81/1/81 128/1/128
f 88/1/88 134/4/134 135/4/135 98/1/98
f 98/1/98 135/4/135 133/1/133 97/1/97
f 69/3/69 102/1/102 103/1/103 71/1/71
f 71/1/71 103/1/103 101/1/101 70/1/70
f 119/3/119 73/1/73 74/1/74 121/1/121
f 121/1/121 74/1/74 72/1/72 120/1/120
f 134/1/134 88/4/88 89/3/89 137/5/137
f 137/5/137 89/3/89 87/1/87 136/1/136
f 125/1/125 93/1/93 94/1/94 127/1/127
f 127/1/127 94/1/94 82/1/82 126/1/126
f 131/1/131 84/1/84 96/1/96 142/4/142
f 142/4/142 96/1/96 95/1/95 141/1/141
f 110/1/110 61/1/61 62/1/62 112/1/112
f 112/1/112 62/1/62 60/1/60 111/1/111
f 57/1/57 61/1/61 110/1/110 108/1/108
f 151/1/151 146/1/146 147/1/147 153/1/153
f 153/1/153 147/1/147 145/1/145 152/1/152
f 148/1/148 155/1/155 156/1/156 150/1/150
f 150/1/150 156/1/156 154/1/154 149/2/149
f 38/1/38 27/1/27 25/1/25 145/1/145 147/1/147 146/1/146
f 176/1/176 175/1/175 174/1/174 199/1/199 198/1/198 200/1/200 161/1/161 160/1/160 162/1/162 159/1/159 158/1/158 157/1/157
f 177/1/177 197/4/197 196/1/196 194/1/194 193/1/193 195/1/195 181/1/181 180/1/180 179/1/179 178/1/178
f 182/4/182 192/5/192 191/1/191 172/1/172 171/4/171 173/4/173 170/4/170 169/1/169 184/1/184 183/4/183
f 189/1/189 188/1/188 190/1/190 187/1/187 186/1/186 185/3/185 167/1/167 166/1/166 168/1/168 165/1/165 164/1/164 163/3/163
f 111/1/111 122/1/122 161/1/161 200/1/200
f 131/1/131 142/4/142 197/4/197 177/1/177
f 130/1/130 132/1/132 178/1/178 179/1/179
f 142/4/142 141/1/141 196/1/196 197/4/197
f 128/1/128 130/1/130 179/1/179 180/1/180
f 138/1/138 140/4/140 171/4/171 172/1/172
f 119/3/119 121/1/121 188/1/188 189/3/189
f 105/1/105 113/1/113 165/1/165 168/1/168
f 115/1/115 114/1/114 163/1/163 164/1/164
f 110/1/110 112/1/112 198/1/198 199/1/199
f 134/1/134 137/5/137 192/5/192 182/1/182
f 114/1/114 119/3/119 189/3/189 163/1/163
f 113/1/113 115/1/115 164/1/164 165/1/165
f 129/1/129 128/1/128 180/1/180 181/1/181
f 126/1/126 129/1/129 181/1/181 195/1/195
f 140/4/140 139/4/139 173/4/173 171/4/171
f 121/1/121 120/1/120 190/1/190 188/1/188
f 118/1/118 117/1/117 157/1/157 158/1/158
f 139/1/139 144/4/144 170/4/170 173/1/173
f 102/1/102 104/3/104 167/3/167 185/1/185
f 104/3/104 106/1/106 166/1/166 167/3/167
f 135/4/135 134/4/134 182/4/182 183/4/183
f 112/1/112 111/1/111 200/1/200 198/1/198
f 136/1/136 138/1/138 172/1/172 191/1/191
f 116/1/116 118/1/118 158/1/158 159/1/159
f 109/1/109 108/1/108 174/1/174 175/1/175
f 137/5/137 136/1/136 191/1/191 192/5/192
f 133/1/133 135/4/135 183/4/183 184/1/184
f 120/1/120 101/1/101 187/1/187 190/1/190
f 106/1/106 105/1/105 168/1/168 166/1/166
f 108/1/108 110/1/110 199/1/199 174/1/174
f 122/1/122 124/1/124 160/1/160 161/1/161
f 107/1/107 109/1/109 175/1/175 176/1/176
f 125/1/125 127/1/127 193/1/193 194/1/194
f 141/1/141 125/1/125 194/1/194 196/1/196
f 103/1/103 102/1/102 185/1/185 186/1/186
f 117/1/117 107/1/107 176/1/176 157/1/157
f 143/1/143 133/1/133 184/1/184 169/1/169
f 123/1/123 116/1/116 159/1/159 162/1/162
f 144/4/144 143/1/143 169/1/169 170/4/170
