# Blender 5.0.1
# www.blender.org
mtllib tenedor.mtl
o tenedor
v -0.026407 -0.001285 -0.014000
v 0.006601 0.018771 -0.014000
v -0.006767 0.004089 -0.014000
v -0.026407 -0.001285 0.014000
v -0.006767 0.004089 0.014000
v 0.006601 0.018771 0.014000
v -0.030503 -0.001285 -0.014000
v -0.050046 0.004079 -0.014000
v -0.063153 0.018734 -0.014000
v -0.030503 -0.001285 0.014000
v -0.063153 0.018734 0.014000
v -0.050046 0.004079 0.014000
v -0.015140 0.307951 -0.003675
v -0.025643 0.307951 -0.014000
v -0.018216 0.307951 -0.010976
v -0.025643 0.307951 0.014000
v -0.015140 0.307951 0.003675
v -0.018216 0.307951 0.010976
v -0.025645 0.307951 -0.014000
v -0.036183 0.307951 -0.003675
v -0.033097 0.307951 -0.010976
v -0.036183 0.307951 0.003675
v -0.025645 0.307951 0.014000
v -0.033097 0.307951 0.010976
v -0.025660 0.486372 -0.014000
v -0.015140 0.486372 -0.003675
v -0.018221 0.486372 -0.010976
v -0.015140 0.486372 0.003675
v -0.025660 0.486372 0.014000
v -0.018221 0.486372 0.010976
v -0.036183 0.486372 -0.003675
v -0.025625 0.486372 -0.014000
v -0.033091 0.486372 -0.010976
v -0.025625 0.486372 0.014000
v -0.036183 0.486372 0.003675
v -0.033091 0.486372 0.010976
v 0.017929 0.586349 -0.003675
v 0.014844 0.586349 -0.010976
v 0.017929 0.586349 0.003675
v 0.014844 0.586349 0.010976
v -0.072329 0.586349 -0.003675
v -0.069232 0.586349 -0.010976
v -0.072329 0.586349 0.003675
v -0.069232 0.586349 0.010976
v 0.006601 0.018771 -0.014000
v 0.010117 0.038827 -0.003675
v 0.009087 0.032952 -0.010976
v 0.010117 0.038827 0.003675
v 0.006601 0.018771 0.014000
v 0.009087 0.032952 0.010976
v -0.066310 0.038753 -0.003675
v -0.063153 0.018734 -0.014000
v -0.065385 0.032890 -0.010976
v -0.063153 0.018734 0.014000
v -0.066310 0.038753 0.003675
v -0.065385 0.032890 0.010976
v 0.017929 0.585510 -0.006293
v 0.010222 0.585510 -0.014000
v 0.015672 0.585510 -0.011743
v 0.010222 0.585510 0.014000
v 0.017929 0.585510 0.006293
v 0.015672 0.585510 0.011743
v -0.064622 0.585510 -0.014000
v -0.072329 0.585510 -0.006293
v -0.070071 0.585510 -0.011743
v -0.072329 0.585510 0.006293
v -0.064622 0.585510 0.014000
v -0.070071 0.585510 0.011743
v -0.063389 0.585510 0.014000
v -0.055683 0.585510 0.006293
v -0.057940 0.585510 0.011743
v -0.055683 0.585510 -0.006293
v -0.063389 0.585510 -0.014000
v -0.057940 0.585510 -0.011743
v 0.006497 0.585510 -0.014000
v -0.001210 0.585510 -0.006293
v 0.001047 0.585510 -0.011743
v -0.001210 0.585510 0.006293
v 0.006497 0.585510 0.014000
v 0.001047 0.585510 0.011743
v -0.047217 0.585510 0.006293
v -0.040582 0.585510 0.014000
v -0.044960 0.585510 0.011743
v -0.040582 0.585510 -0.014000
v -0.047217 0.585510 -0.006293
v -0.044960 0.585510 -0.011743
v -0.009973 0.585510 -0.006293
v -0.017465 0.585510 -0.014000
v -0.012231 0.585510 -0.011743
v -0.017465 0.585510 0.014000
v -0.009973 0.585510 0.006293
v -0.012231 0.585510 0.011743
v -0.033946 0.585510 0.006293
v -0.036204 0.585510 0.011743
v -0.033946 0.585510 -0.006293
v -0.036204 0.585510 -0.011743
v -0.024957 0.585510 -0.006293
v -0.022699 0.585510 -0.011743
v -0.024957 0.585510 0.006293
v -0.022699 0.585510 0.011743
v -0.057786 0.699837 0.004703
v -0.063545 0.699837 0.010462
v -0.059473 0.699837 0.008775
v -0.064466 0.699837 0.010462
v -0.070225 0.699837 0.004703
v -0.068538 0.699837 0.008775
v 0.009461 0.699837 -0.008275
v 0.014016 0.699837 -0.003720
v 0.012682 0.699837 -0.006941
v 0.014016 0.699837 0.003720
v 0.009461 0.699837 0.008275
v 0.012682 0.699837 0.006941
v -0.070225 0.699837 -0.004703
v -0.064466 0.699837 -0.010462
v -0.068538 0.699837 -0.008775
v 0.002703 0.699837 -0.003720
v 0.007259 0.699837 -0.008275
v 0.004038 0.699837 -0.006941
v -0.063545 0.699837 -0.010462
v -0.057786 0.699837 -0.004703
v -0.059473 0.699837 -0.008775
v 0.007259 0.699837 0.008275
v 0.002703 0.699837 0.003720
v 0.004038 0.699837 0.006941
v -0.035458 0.699837 0.004859
v -0.040582 0.699837 0.010810
v -0.037201 0.699837 0.009067
v -0.045706 0.699837 0.004859
v -0.043963 0.699837 0.009067
v -0.045706 0.699837 -0.004859
v -0.040582 0.699837 -0.010810
v -0.043963 0.699837 -0.009067
v -0.023021 0.699837 -0.004668
v -0.017465 0.699837 -0.010384
v -0.021347 0.699837 -0.008709
v -0.011908 0.699837 -0.004668
v -0.013583 0.699837 -0.008709
v -0.011908 0.699837 0.004668
v -0.017465 0.699837 0.010384
v -0.013583 0.699837 0.008709
v -0.035458 0.699837 -0.004859
v -0.037201 0.699837 -0.009067
v -0.023021 0.699837 0.004668
v -0.021347 0.699837 0.008709
v 0.004722 0.578262 -0.014000
v 0.014844 0.586349 -0.010976
v 0.008794 0.583980 -0.013114
v 0.014844 0.586349 0.010976
v 0.004722 0.578262 0.014000
v 0.008794 0.583980 0.013114
v -0.069232 0.586349 -0.010976
v -0.058832 0.578262 -0.014000
v -0.063089 0.583980 -0.013114
v -0.058832 0.578262 0.014000
v -0.069232 0.586349 0.010976
v -0.063089 0.583980 0.013114
v 0.007893 0.731508 -0.003509
v 0.006527 0.731508 -0.002943
v 0.005961 0.731508 -0.001577
v 0.006527 0.731508 0.002944
v 0.007893 0.731508 0.003509
v 0.005961 0.731508 0.001578
v -0.064262 0.731508 -0.005816
v -0.066526 0.731508 -0.004878
v -0.067463 0.731508 -0.002614
v -0.066526 0.731508 0.004878
v -0.064262 0.731508 0.005816
v -0.067463 0.731508 0.002614
v -0.020253 0.731508 0.002342
v -0.019413 0.731508 0.004370
v -0.015517 0.731508 0.004370
v -0.014677 0.731508 0.002342
v -0.017465 0.731508 0.005211
v 0.010758 0.731508 -0.001577
v 0.010192 0.731508 -0.002943
v 0.008826 0.731508 -0.003509
v -0.040582 0.731508 -0.005791
v -0.042393 0.731508 -0.004858
v -0.043327 0.731508 -0.002603
v -0.043327 0.731508 0.002603
v -0.042393 0.731508 0.004858
v -0.017465 0.731508 -0.005210
v -0.019413 0.731508 -0.004370
v -0.020253 0.731508 -0.002342
v -0.063750 0.731508 0.005816
v -0.061486 0.731508 0.004878
v -0.060548 0.731508 0.002614
v -0.061486 0.731508 -0.004878
v -0.063750 0.731508 -0.005816
v -0.060548 0.731508 -0.002614
v -0.014677 0.731508 -0.002342
v -0.015517 0.731508 -0.004370
v -0.038771 0.731508 0.004858
v -0.037837 0.731508 0.002603
v -0.040582 0.731508 0.005791
v -0.037837 0.731508 -0.002603
v -0.038771 0.731508 -0.004858
v 0.010192 0.731508 0.002944
v 0.010758 0.731508 0.001578
v 0.008826 0.731508 0.003509
vn -0.9825 0.0563 -0.1773
vn -0.9825 0.0563 0.1773
vn -0.9644 -0.1728 0.2003
vn -0.9644 -0.1728 -0.2003
vn 0.9669 -0.1590 0.1998
vn 0.9669 -0.1590 -0.1998
vn 0.8238 0.5437 -0.1604
vn 0.8238 0.5437 0.1604
vn -0.4044 0.0267 0.9142
vn 0.4078 0.0231 0.9128
vn 0.4192 -0.0618 0.9058
vn -0.4224 -0.0673 0.9039
vn -0.0981 -0.7282 -0.6783
vn 0.0978 -0.7282 -0.6783
vn 0.0978 -0.7282 0.6783
vn -0.0981 -0.7282 0.6783
vn 0.4078 0.0231 -0.9128
vn -0.4044 0.0267 -0.9142
vn -0.4224 -0.0673 -0.9039
vn 0.4192 -0.0618 -0.9058
vn -0.6727 -0.1192 -0.7302
vn -0.6807 0.2698 -0.6811
vn -0.2308 0.6643 -0.7109
vn -0.1710 0.2842 -0.9434
vn -0.1724 -0.0069 -0.9850
vn -0.9939 0.0054 0.1101
vn -0.9939 0.0054 -0.1101
vn -0.4007 -0.6470 -0.6487
vn -0.8011 -0.3801 -0.4622
vn -0.6713 -0.0878 -0.7360
vn 0.6698 -0.0994 -0.7359
vn 0.7963 -0.3906 -0.4618
vn 0.3972 -0.6484 -0.6494
vn 0.3972 -0.6484 0.6494
vn 0.7963 -0.3906 0.4618
vn 0.6698 -0.0994 0.7359
vn -0.6713 -0.0878 0.7360
vn -0.8011 -0.3801 0.4622
vn -0.4007 -0.6470 0.6487
vn 0.8579 -0.0378 -0.5124
vn 0.9938 -0.0120 -0.1102
vn 0.9938 -0.0120 0.1102
vn 0.8579 -0.0378 0.5124
vn 0.6779 0.2880 -0.6764
vn 0.2302 0.6677 -0.7079
vn -0.8307 0.5326 -0.1618
vn -0.8307 0.5326 0.1618
vn -0.6807 0.2698 0.6811
vn -0.2308 0.6643 0.7109
vn 0.2302 0.6677 0.7079
vn 0.6779 0.2880 0.6764
vn 0.1704 0.2887 0.9421
vn 0.1728 -0.0022 0.9850
vn 0.6765 -0.1100 0.7282
vn -0.1484 0.6470 -0.7479
vn 0.1484 0.6470 -0.7479
vn 0.1937 -0.0996 -0.9760
vn -0.1937 -0.0996 -0.9760
vn 0.1471 0.6544 0.7417
vn -0.1471 0.6544 0.7417
vn -0.1934 -0.0867 0.9773
vn 0.1934 -0.0867 0.9773
vn 0.1484 0.6470 0.7479
vn -0.1484 0.6470 0.7479
vn -0.1938 -0.0996 0.9760
vn 0.1937 -0.0996 0.9760
vn -0.7383 0.6580 0.1478
vn -0.7383 0.6580 -0.1478
vn -0.9786 -0.0592 -0.1969
vn -0.9786 -0.0592 0.1969
vn -0.7437 0.6516 0.1494
vn -0.5577 0.6121 0.5607
vn 0.5577 0.6121 0.5607
vn 0.7437 0.6516 0.1494
vn 0.7437 0.6516 -0.1494
vn 0.5577 0.6121 -0.5607
vn -0.5577 0.6121 -0.5607
vn -0.7437 0.6516 -0.1494
vn 0.9776 -0.0755 0.1963
vn 0.9776 -0.0755 -0.1963
vn 0.7366 0.6600 -0.1474
vn 0.5709 0.6289 -0.5278
vn -0.0000 0.6065 -0.7951
vn -0.5709 0.6289 -0.5278
vn -0.7367 0.6600 -0.1475
vn -0.7367 0.6600 0.1475
vn -0.5709 0.6289 0.5278
vn -0.0000 0.6065 0.7951
vn 0.5709 0.6289 0.5278
vn 0.7366 0.6600 0.1474
vn 0.9790 -0.0513 0.1975
vn 0.9790 -0.0513 -0.1975
vn 0.7379 0.6585 -0.1478
vn 0.7379 0.6585 0.1478
vn 0.9785 -0.0594 0.1973
vn 0.9785 -0.0594 -0.1973
vn -0.9790 -0.0513 -0.1975
vn -0.9790 -0.0513 0.1975
vn -0.7379 0.6585 0.1478
vn -0.7379 0.6585 -0.1478
vn -0.9785 -0.0594 -0.1974
vn -0.9785 -0.0594 0.1974
vn 0.5537 0.6198 0.5561
vn 0.7383 0.6580 0.1478
vn 0.7383 0.6580 -0.1478
vn 0.5537 0.6198 -0.5561
vn 0.1471 0.6544 -0.7417
vn -0.1471 0.6544 -0.7417
vn -0.5538 0.6198 -0.5561
vn -0.5538 0.6198 0.5561
vn -0.7024 -0.0786 -0.7075
vn -0.5248 -0.6787 -0.5138
vn -0.7000 -0.7012 -0.1349
vn -0.7303 -0.0735 -0.6791
vn -0.0000 -0.0907 -0.9959
vn -0.0000 -0.6754 -0.7374
vn -0.5444 -0.6833 -0.4865
vn 0.7304 -0.0735 0.6791
vn -0.0000 -0.0907 0.9959
vn -0.0000 -0.6754 0.7374
vn 0.5444 -0.6833 0.4865
vn 0.7022 -0.0949 -0.7056
vn 0.6946 -0.7068 -0.1340
vn 0.5206 -0.6833 -0.5120
vn 0.1934 -0.0867 -0.9773
vn -0.1934 -0.0867 -0.9773
vn 0.9786 -0.0592 0.1969
vn 0.9786 -0.0592 -0.1969
vn -0.5567 0.6213 0.5515
vn -0.0000 0.6160 0.7878
vn 0.5567 0.6213 0.5515
vn 0.5567 0.6213 -0.5515
vn -0.0000 0.6160 -0.7878
vn -0.5567 0.6213 -0.5515
vn -0.8585 -0.0227 0.5123
vn -0.8585 -0.0227 -0.5123
vn 0.9831 0.0473 -0.1768
vn 0.9831 0.0473 0.1768
vn 0.7295 0.0380 0.6829
vn -0.7276 0.0448 0.6846
vn -0.6727 -0.1192 0.7302
vn -0.7276 0.0448 -0.6846
vn 0.6765 -0.1100 -0.7282
vn 0.7295 0.0380 -0.6829
vn -0.1724 -0.0069 0.9850
vn -0.1710 0.2842 0.9434
vn 0.1728 -0.0022 -0.9850
vn 0.7022 -0.0949 0.7056
vn 0.7024 -0.0786 0.7075
vn 0.7024 -0.0786 -0.7075
vn 0.7065 -0.0820 -0.7029
vn -0.0000 -0.0951 -0.9955
vn -0.7065 -0.0820 -0.7029
vn -0.9776 -0.0755 0.1963
vn -0.7023 -0.0949 0.7056
vn 0.7304 -0.0735 -0.6791
vn -0.0000 -0.0951 0.9955
vn 0.7065 -0.0820 0.7029
vn -0.7024 -0.0786 0.7075
vn -0.7065 -0.0820 0.7030
vn -0.7303 -0.0735 0.6791
vn -0.9776 -0.0755 -0.1963
vn -0.7022 -0.0949 -0.7056
vn 0.1704 0.2887 -0.9421
vn -0.1363 -0.7198 0.6807
vn -0.5206 -0.6834 0.5118
vn -0.6946 -0.7068 0.1340
vn -0.6946 -0.7068 -0.1340
vn -0.5206 -0.6833 -0.5119
vn -0.1362 -0.7199 -0.6806
vn 0.1362 -0.7199 -0.6806
vn 0.6946 -0.7068 0.1340
vn 0.5209 -0.6832 0.5117
vn 0.1363 -0.7198 0.6807
vn -0.5444 -0.6833 0.4865
vn -0.7039 -0.6974 0.1349
vn -0.7039 -0.6974 -0.1349
vn 0.5444 -0.6833 -0.4865
vn 0.7039 -0.6974 -0.1349
vn 0.7039 -0.6974 0.1349
vn -0.0000 -0.6877 0.7260
vn -0.5275 -0.6825 0.5060
vn -0.6996 -0.7018 0.1342
vn -0.6996 -0.7018 -0.1342
vn -0.5275 -0.6825 -0.5059
vn -0.0000 -0.6876 -0.7261
vn 0.5275 -0.6825 -0.5059
vn 0.6996 -0.7018 -0.1342
vn 0.6996 -0.7018 0.1342
vn 0.5275 -0.6825 0.5059
vn -0.1378 -0.7176 0.6827
vn -0.5248 -0.6787 0.5138
vn -0.7000 -0.7012 0.1349
vn -0.1378 -0.7176 -0.6827
vn 0.1378 -0.7176 -0.6827
vn 0.5249 -0.6786 -0.5138
vn 0.7000 -0.7013 -0.1349
vn 0.7000 -0.7013 0.1349
vn 0.5249 -0.6786 0.5138
vn 0.1378 -0.7176 0.6827
vt 0.554688 0.937500
s 1
usemtl Material.002
f 20/1/1 22/1/2 35/1/3 31/1/4
f 28/1/5 26/1/6 37/1/7 39/1/8
f 23/1/9 16/1/10 29/1/11 34/1/12
f 7/1/13 1/1/14 4/1/15 10/1/16
f 14/1/17 19/1/18 32/1/19 25/1/20
f 33/1/21 42/1/22 151/1/23 153/1/24 152/1/25 32/1/19
f 55/1/26 22/1/2 20/1/1 51/1/27
f 7/1/13 8/1/28 9/1/29 52/1/30 19/1/18 14/1/17 45/1/31 2/1/32 3/1/33 1/1/14
f 4/1/15 5/1/34 6/1/35 49/1/36 16/1/10 23/1/9 54/1/37 11/1/38 12/1/39 10/1/16
f 6/1/35 2/1/32 45/1/31 47/1/40 46/1/41 48/1/42 50/1/43 49/1/36
f 37/1/7 38/1/44 146/1/45 151/1/23 42/1/22 41/1/46 43/1/47 44/1/48 155/1/49 148/1/50 40/1/51 39/1/8
f 148/1/50 150/1/52 149/1/53 29/1/11 30/1/54 40/1/51
f 31/1/4 35/1/3 43/1/47 41/1/46
f 60/1/55 79/1/56 122/1/57 111/1/58
f 63/1/59 73/1/60 119/1/61 114/1/62
f 75/1/63 58/1/64 107/1/65 117/1/66
f 72/1/67 70/1/68 101/1/69 120/1/70
f 57/1/71 59/1/72 58/1/64 75/1/63 77/1/73 76/1/74 78/1/75 80/1/76 79/1/56 60/1/55 62/1/77 61/1/78
f 78/1/75 76/1/74 116/1/79 123/1/80
f 81/1/81 83/1/82 82/1/83 94/1/84 93/1/85 95/1/86 96/1/87 84/1/88 86/1/89 85/1/90
f 81/1/81 85/1/90 130/1/91 128/1/92
f 99/1/93 97/1/94 133/1/95 143/1/96
f 95/1/86 93/1/85 125/1/97 141/1/98
f 87/1/99 91/1/100 138/1/101 136/1/102
f 63/1/59 65/1/103 64/1/104 66/1/105 68/1/106 67/1/107 69/1/108 71/1/109 70/1/68 72/1/67 74/1/110 73/1/60
f 101/1/69 103/1/111 186/1/112 187/1/113
f 127/1/114 126/1/115 195/1/116 193/1/117
f 132/1/118 131/1/119 177/1/120 178/1/121
f 124/1/122 123/1/80 162/1/123 160/1/124
f 69/1/108 67/1/107 104/1/125 102/1/126
f 66/1/105 64/1/104 113/1/127 105/1/128
f 87/1/99 89/1/129 88/1/130 98/1/131 97/1/94 99/1/93 100/1/132 90/1/133 92/1/134 91/1/100
f 7/1/13 10/1/16 12/1/39 8/1/28
f 8/1/28 12/1/39 11/1/38 9/1/29
f 4/1/15 1/1/14 3/1/33 5/1/34
f 5/1/34 3/1/33 2/1/32 6/1/35
f 9/1/29 11/1/38 54/1/37 56/1/135 55/1/26 51/1/27 53/1/136 52/1/30
f 46/1/41 13/1/137 17/1/138 48/1/42
f 17/1/138 28/1/5 30/1/54 18/1/139
f 18/1/139 30/1/54 29/1/11 16/1/10
f 35/1/3 22/1/2 24/1/140 36/1/141
f 36/1/141 24/1/140 23/1/9 34/1/12
f 32/1/19 19/1/18 21/1/142 33/1/21
f 33/1/21 21/1/142 20/1/1 31/1/4
f 14/1/17 25/1/20 27/1/143 15/1/144
f 15/1/144 27/1/143 26/1/6 13/1/137
f 31/1/4 41/1/46 42/1/22 33/1/21
f 34/1/12 154/1/145 156/1/146 155/1/49 44/1/48 36/1/141
f 37/1/7 26/1/6 27/1/143 38/1/44
f 25/1/20 32/1/19 152/1/25 145/1/147
f 34/1/12 29/1/11 149/1/53 154/1/145
f 40/1/51 30/1/54 28/1/5 39/1/8
f 36/1/141 44/1/48 43/1/47 35/1/3
f 51/1/27 20/1/1 21/1/142 53/1/136
f 53/1/136 21/1/142 19/1/18 52/1/30
f 13/1/137 46/1/41 47/1/40 15/1/144
f 15/1/144 47/1/40 45/1/31 14/1/17
f 16/1/10 49/1/36 50/1/43 18/1/139
f 18/1/139 50/1/43 48/1/42 17/1/138
f 22/1/2 55/1/26 56/1/135 24/1/140
f 24/1/140 56/1/135 54/1/37 23/1/9
f 17/1/138 13/1/137 26/1/6 28/1/5
f 75/1/63 117/1/66 118/1/148 77/1/73
f 77/1/73 118/1/148 116/1/79 76/1/74
f 122/1/57 79/1/56 80/1/76 124/1/122
f 124/1/122 80/1/76 78/1/75 123/1/80
f 63/1/59 114/1/62 115/1/149 65/1/103
f 65/1/103 115/1/149 113/1/127 64/1/104
f 104/1/125 67/1/107 68/1/106 106/1/150
f 106/1/150 68/1/106 66/1/105 105/1/128
f 99/1/93 143/1/96 144/1/151 100/1/132
f 100/1/132 144/1/151 139/1/152 90/1/133
f 138/1/101 91/1/100 92/1/134 140/1/153
f 140/1/153 92/1/134 90/1/133 139/1/152
f 57/1/71 108/1/154 109/1/155 59/1/72
f 59/1/72 109/1/155 107/1/65 58/1/64
f 84/1/88 131/1/119 132/1/118 86/1/89
f 86/1/89 132/1/118 130/1/91 85/1/90
f 126/1/115 82/1/83 83/1/82 129/1/156
f 129/1/156 83/1/82 81/1/81 128/1/92
f 88/1/130 134/1/157 135/1/158 98/1/131
f 98/1/131 135/1/158 133/1/95 97/1/94
f 69/1/108 102/1/126 103/1/111 71/1/109
f 71/1/109 103/1/111 101/1/69 70/1/68
f 119/1/61 73/1/60 74/1/110 121/1/159
f 121/1/159 74/1/110 72/1/67 120/1/70
f 134/1/157 88/1/130 89/1/129 137/1/160
f 137/1/160 89/1/129 87/1/99 136/1/102
f 125/1/97 93/1/85 94/1/84 127/1/114
f 127/1/114 94/1/84 82/1/83 126/1/115
f 131/1/119 84/1/88 96/1/87 142/1/161
f 142/1/161 96/1/87 95/1/86 141/1/98
f 110/1/162 61/1/78 62/1/77 112/1/163
f 112/1/163 62/1/77 60/1/55 111/1/58
f 57/1/71 61/1/78 110/1/162 108/1/154
f 151/1/23 146/1/45 147/1/164 153/1/24
f 153/1/24 147/1/164 145/1/147 152/1/25
f 148/1/50 155/1/49 156/1/146 150/1/52
f 150/1/52 156/1/146 154/1/145 149/1/53
f 38/1/44 27/1/143 25/1/20 145/1/147 147/1/164 146/1/45
f 176/1/165 175/1/166 174/1/167 199/1/168 198/1/169 200/1/170 161/1/171 160/1/124 162/1/123 159/1/172 158/1/173 157/1/174
f 177/1/120 197/1/175 196/1/176 194/1/177 193/1/117 195/1/116 181/1/178 180/1/179 179/1/180 178/1/121
f 182/1/181 192/1/182 191/1/183 172/1/184 171/1/185 173/1/186 170/1/187 169/1/188 184/1/189 183/1/190
f 189/1/191 188/1/192 190/1/193 187/1/113 186/1/112 185/1/194 167/1/195 166/1/196 168/1/197 165/1/198 164/1/199 163/1/200
f 111/1/58 122/1/57 161/1/171 200/1/170
f 131/1/119 142/1/161 197/1/175 177/1/120
f 130/1/91 132/1/118 178/1/121 179/1/180
f 142/1/161 141/1/98 196/1/176 197/1/175
f 128/1/92 130/1/91 179/1/180 180/1/179
f 138/1/101 140/1/153 171/1/185 172/1/184
f 119/1/61 121/1/159 188/1/192 189/1/191
f 105/1/128 113/1/127 165/1/198 168/1/197
f 115/1/149 114/1/62 163/1/200 164/1/199
f 110/1/162 112/1/163 198/1/169 199/1/168
f 134/1/157 137/1/160 192/1/182 182/1/181
f 114/1/62 119/1/61 189/1/191 163/1/200
f 113/1/127 115/1/149 164/1/199 165/1/198
f 129/1/156 128/1/92 180/1/179 181/1/178
f 126/1/115 129/1/156 181/1/178 195/1/116
f 140/1/153 139/1/152 173/1/186 171/1/185
f 121/1/159 120/1/70 190/1/193 188/1/192
f 118/1/148 117/1/66 157/1/174 158/1/173
f 139/1/152 144/1/151 170/1/187 173/1/186
f 102/1/126 104/1/125 167/1/195 185/1/194
f 104/1/125 106/1/150 166/1/196 167/1/195
f 135/1/158 134/1/157 182/1/181 183/1/190
f 112/1/163 111/1/58 200/1/170 198/1/169
f 136/1/102 138/1/101 172/1/184 191/1/183
f 116/1/79 118/1/148 158/1/173 159/1/172
f 109/1/155 108/1/154 174/1/167 175/1/166
f 137/1/160 136/1/102 191/1/183 192/1/182
f 133/1/95 135/1/158 183/1/190 184/1/189
f 120/1/70 101/1/69 187/1/113 190/1/193
f 106/1/150 105/1/128 168/1/197 166/1/196
f 108/1/154 110/1/162 199/1/168 174/1/167
f 122/1/57 124/1/122 160/1/124 161/1/171
f 107/1/65 109/1/155 175/1/166 176/1/165
f 125/1/97 127/1/114 193/1/117 194/1/177
f 141/1/98 125/1/97 194/1/177 196/1/176
f 103/1/111 102/1/126 185/1/194 186/1/112
f 117/1/66 107/1/65 176/1/165 157/1/174
f 143/1/96 133/1/95 184/1/189 169/1/188
f 123/1/80 116/1/79 159/1/172 162/1/123
f 144/1/151 143/1/96 169/1/188 170/1/187
